HIERARCHY
ROOT Hips
{
	OFFSET -0.001795 -0.223333 0.028219
	CHANNELS 6 Xposition Yposition Zposition Zrotation Yrotation Xrotation 
	JOINT LeftUpLeg
	{
		OFFSET 0.069520 -0.091406 -0.006815
		CHANNELS 3 Zrotation Yrotation Xrotation
		JOINT LeftLeg
		{
			OFFSET 0.034277 -0.375199 -0.004496
			CHANNELS 3 Zrotation Yrotation Xrotation
			JOINT LeftFoot
			{
				OFFSET -0.013596 -0.397961 -0.043693
				CHANNELS 3 Zrotation Yrotation Xrotation
				JOINT LeftToe
				{
					OFFSET 0.026358 -0.055791 0.119288
					CHANNELS 3 Zrotation Yrotation Xrotation
					End Site
					{
						OFFSET 0.000000 0.000000 0.000000
					}
				}
			}
		}
	}
	JOINT RightUpLeg
	{
		OFFSET -0.067670 -0.090522 -0.004320
		CHANNELS 3 Zrotation Yrotation Xrotation
		JOINT RightLeg
		{
			OFFSET -0.038290 -0.382569 -0.008850
			CHANNELS 3 Zrotation Yrotation Xrotation
			JOINT RightFoot
			{
				OFFSET 0.015774 -0.398415 -0.042312
				CHANNELS 3 Zrotation Yrotation Xrotation
				JOINT RightToe
				{
					OFFSET -0.025372 -0.048144 0.123348
					CHANNELS 3 Zrotation Yrotation Xrotation
					End Site
					{
						OFFSET 0.000000 0.000000 0.000000
					}
				}
			}
		}
	}
	JOINT Spine
	{
		OFFSET -0.002533 0.108963 -0.026696
		CHANNELS 3 Zrotation Yrotation Xrotation
		JOINT Spine1
		{
			OFFSET 0.005487 0.135180 0.001092
			CHANNELS 3 Zrotation Yrotation Xrotation
			JOINT Spine2
			{
				OFFSET 0.001457 0.052922 0.025425
				CHANNELS 3 Zrotation Yrotation Xrotation
				JOINT Neck
				{
					OFFSET -0.002778 0.213870 -0.042857
					CHANNELS 3 Zrotation Yrotation Xrotation
					JOINT Head
					{
						OFFSET 0.005152 0.064970 0.051349
						CHANNELS 3 Zrotation Yrotation Xrotation
						End Site
						{
							OFFSET 0.000000 0.000000 0.000000
						}
					}
				}
				JOINT LeftShoulder
				{
					OFFSET 0.078845 0.121749 -0.034090
					CHANNELS 3 Zrotation Yrotation Xrotation
					JOINT LeftArm
					{
						OFFSET 0.090977 0.030469 -0.008868
						CHANNELS 3 Zrotation Yrotation Xrotation
						JOINT LeftForeArm
						{
							OFFSET 0.259612 -0.012772 -0.027456
							CHANNELS 3 Zrotation Yrotation Xrotation
							JOINT LeftHand
							{
								OFFSET 0.249234 0.008986 -0.001171
								CHANNELS 3 Zrotation Yrotation Xrotation
								End Site
								{
									OFFSET 0.000000 0.000000 0.000000
								}
							}
						}
					}
				}
				JOINT RightShoulder
				{
					OFFSET -0.081759 0.118833 -0.038615
					CHANNELS 3 Zrotation Yrotation Xrotation
					JOINT RightArm
					{
						OFFSET -0.096012 0.032551 -0.009143
						CHANNELS 3 Zrotation Yrotation Xrotation
						JOINT RightForeArm
						{
							OFFSET -0.253742 -0.013329 -0.021401
							CHANNELS 3 Zrotation Yrotation Xrotation
							JOINT RightHand
							{
								OFFSET -0.255298 0.007772 -0.005559
								CHANNELS 3 Zrotation Yrotation Xrotation
								End Site
								{
									OFFSET 0.000000 0.000000 0.000000
								}
							}
						}
					}
				}
			}
		}
	}
}
MOTION
Frames: 11
Frame Time: 0.050000
0.059749 0.942810 -0.080771 -3.123982 33.156592 -0.331770 9.565198 -1.195163 -12.802340 -5.371728 -0.247534 12.060469 -1.989618 4.389612 10.970214 0.000000 0.000000 0.000000 -3.328804 0.051646 -19.343472 1.374959 -1.574704 19.737139 -10.596395 -16.803247 34.802636 0.000000 0.000000 0.000000 1.578752 -2.163718 18.689544 -5.871155 1.732993 7.585511 -8.216261 8.053732 8.577252 12.421729 -4.596266 -14.764478 0.000000 0.000000 0.000000 11.951382 -43.995949 11.074655 25.844847 -34.644464 -11.362975 37.695231 -3.707038 -2.283380 0.000000 0.000000 0.000000 -17.790372 33.744667 6.774562 -25.024750 56.700042 -9.819531 -43.515577 -0.485746 1.745460 0.000000 0.000000 0.000000 
0.057154 0.943282 -0.079955 -3.211580 33.842479 -0.286680 9.684194 -1.230649 -13.030524 -5.155965 -0.281206 11.929645 -2.393250 3.961514 11.200958 0.000000 0.000000 0.000000 -3.097319 0.070885 -19.376495 1.241907 -1.573411 19.728610 -10.753718 -16.850648 35.043683 0.000000 0.000000 0.000000 1.215561 -2.115666 18.669258 -5.889175 1.693841 7.688079 -8.353746 7.933748 8.668227 12.567704 -4.646859 -14.888563 0.000000 0.000000 0.000000 12.392485 -44.101685 11.011455 26.095771 -34.787488 -11.553551 38.109587 -3.859366 -2.390550 0.000000 0.000000 0.000000 -18.049433 33.506396 6.595395 -24.684506 57.542242 -9.788151 -44.753678 -1.765545 2.314498 0.000000 0.000000 0.000000 
0.054778 0.943868 -0.078960 -3.367883 34.521188 -0.150106 9.740482 -1.272876 -13.336462 -4.725041 -0.332109 11.720846 -2.793757 3.540518 11.417923 0.000000 0.000000 0.000000 -2.919939 0.074384 -19.480566 1.374523 -1.614820 19.342698 -11.333054 -17.340126 36.192395 0.000000 0.000000 0.000000 0.840126 -2.066675 18.648395 -5.893059 1.663494 7.642580 -8.465737 8.011728 8.548482 12.507935 -4.538414 -14.977762 0.000000 0.000000 0.000000 12.145608 -44.410088 11.100521 26.442447 -35.146573 -11.891004 38.532649 -4.415767 -2.591406 0.000000 0.000000 0.000000 -17.823178 33.049262 6.562836 -24.049731 58.458933 -9.620788 -46.279826 -2.296076 2.665537 0.000000 0.000000 0.000000 
0.052701 0.944062 -0.077810 -3.651055 35.380092 -0.350832 9.861203 -1.302491 -13.430631 -4.265845 -0.394993 11.605058 -3.243345 2.933320 11.446196 0.000000 0.000000 0.000000 -2.569998 0.108514 -19.546690 1.419887 -1.698532 19.389604 -12.288945 -18.220240 37.664211 0.000000 0.000000 0.000000 0.791168 -2.100080 18.726111 -5.882308 1.614525 7.665882 -8.785535 8.259572 8.587019 12.949995 -4.842191 -14.812083 0.000000 0.000000 0.000000 12.086289 -45.288804 11.241322 26.699852 -35.234259 -12.110362 38.972362 -4.502216 -2.665647 0.000000 0.000000 0.000000 -17.555023 32.845909 6.619939 -22.903660 58.482007 -8.971291 -47.283465 -2.497940 2.901856 0.000000 0.000000 0.000000 
0.050999 0.943859 -0.076796 -3.806489 36.018222 -0.560952 9.966977 -1.329864 -13.603005 -4.041481 -0.455413 11.860719 -3.538165 2.503323 11.424188 0.000000 0.000000 0.000000 -2.432555 0.119971 -19.361348 1.620014 -1.838952 19.527667 -12.748028 -18.687769 37.426369 0.000000 0.000000 0.000000 0.729811 -2.140305 18.893155 -5.993370 1.619138 7.831669 -9.055841 8.207769 8.462854 12.859609 -4.785570 -14.739770 0.000000 0.000000 0.000000 12.128468 -45.600187 11.276741 26.866226 -35.360725 -12.247412 38.934513 -4.654762 -2.705284 0.000000 0.000000 0.000000 -17.633720 32.738020 6.560149 -22.132231 58.456749 -8.533442 -47.911976 -2.420700 2.960899 0.000000 0.000000 0.000000 
0.049819 0.943362 -0.076154 -3.707991 36.587814 -0.736808 10.103055 -1.347782 -13.646458 -4.352853 -0.454393 12.112152 -3.784489 2.142934 11.421670 0.000000 0.000000 0.000000 -2.415750 0.092829 -19.352830 1.874856 -2.056677 20.045630 -13.997850 -20.110999 37.451665 0.000000 0.000000 0.000000 0.590739 -2.173627 19.115531 -6.212340 1.675135 8.032128 -9.364113 8.469787 8.415130 13.346488 -5.095160 -14.722631 0.000000 0.000000 0.000000 12.100315 -46.583078 11.420571 26.950280 -35.210948 -12.248791 38.754070 -4.651650 -2.676543 0.000000 0.000000 0.000000 -17.945818 32.386116 6.324518 -20.758311 58.074093 -7.649091 -47.942774 -1.849967 2.814311 0.000000 0.000000 0.000000 
0.049164 0.943242 -0.075984 -3.731888 36.853444 -0.825479 10.028922 -1.361241 -13.806843 -4.151989 -0.508963 12.401214 -3.902090 1.969948 11.410317 0.000000 0.000000 0.000000 -2.355984 0.080599 -19.567725 1.855211 -2.142448 20.522814 -14.269544 -20.367440 37.827166 0.000000 0.000000 0.000000 0.556672 -2.191152 19.201024 -6.514177 1.763526 8.372022 -9.598313 8.476458 8.194183 13.386179 -5.152682 -14.625764 0.000000 0.000000 0.000000 12.032199 -46.912873 11.480924 26.899627 -35.299882 -12.251451 38.417454 -4.717002 -2.643605 0.000000 0.000000 0.000000 -18.177165 32.352692 6.233604 -20.287620 57.346616 -7.253848 -47.571816 -1.075801 2.511295 0.000000 0.000000 0.000000 
0.048965 0.943506 -0.076067 -3.747570 37.074511 -0.916947 9.847875 -1.362486 -13.824043 -3.827848 -0.561350 12.486187 -4.046637 1.801113 11.455005 0.000000 0.000000 0.000000 -2.390325 0.053813 -19.634207 2.037603 -2.286926 20.859461 -14.581734 -20.727080 37.810923 0.000000 0.000000 0.000000 0.593810 -2.222936 19.304008 -6.827293 1.897484 8.419434 -9.832814 8.548271 8.214418 13.617137 -5.347390 -14.514233 0.000000 0.000000 0.000000 11.819051 -47.610599 11.618087 26.718149 -35.173680 -12.098405 38.224459 -4.729108 -2.613761 0.000000 0.000000 0.000000 -18.461754 32.134656 6.046941 -19.744071 56.688241 -6.815346 -47.249484 -0.138686 2.162907 0.000000 0.000000 0.000000 
0.049142 0.943966 -0.076308 -3.672931 37.243593 -0.842885 9.711954 -1.355015 -13.696541 -3.739142 -0.542768 12.131514 -4.198261 1.667823 11.574604 0.000000 0.000000 0.000000 -2.454174 0.039588 -19.479089 2.344262 -2.385247 20.647679 -15.313232 -21.633906 37.453295 0.000000 0.000000 0.000000 0.704633 -2.250356 19.319040 -7.097247 1.977682 8.700745 -10.009489 8.450537 8.145454 13.518521 -5.255331 -14.588190 0.000000 0.000000 0.000000 11.839226 -47.642520 11.624566 26.476160 -35.431289 -12.108506 38.636095 -4.467442 -2.577683 0.000000 0.000000 0.000000 -19.151705 31.984028 5.728399 -19.510095 55.890409 -6.492609 -46.964797 0.469908 1.958479 0.000000 0.000000 0.000000 
0.049302 0.944718 -0.076565 -3.736881 37.188359 -0.968827 9.607452 -1.327649 -13.397934 -3.478010 -0.540642 11.795937 -4.274966 1.648223 11.702952 0.000000 0.000000 0.000000 -2.400736 0.073389 -19.176118 2.648333 -2.430249 20.218220 -15.959827 -22.409582 37.555042 0.000000 0.000000 0.000000 0.787393 -2.248495 19.248507 -7.238910 2.024147 8.885057 -10.187104 8.631744 8.125875 13.686284 -5.311939 -14.736729 0.000000 0.000000 0.000000 11.904655 -47.756226 11.629068 26.397440 -35.622903 -12.182601 39.125838 -4.198928 -2.553831 0.000000 0.000000 0.000000 -19.066247 31.958364 5.750864 -19.879966 55.196535 -6.525997 -46.513539 1.142589 1.687199 0.000000 0.000000 0.000000 
0.049243 0.945195 -0.076869 -3.676654 37.308813 -1.013513 9.620629 -1.316551 -13.212351 -3.617633 -0.503526 11.535868 -4.408927 1.567527 11.871556 0.000000 0.000000 0.000000 -2.305012 0.106685 -18.885981 2.755344 -2.438503 19.943795 -16.697570 -23.348587 37.211391 0.000000 0.000000 0.000000 0.782430 -2.279909 19.403964 -7.358059 2.081489 8.858081 -10.408379 8.639656 8.000296 13.889960 -5.320616 -15.105712 0.000000 0.000000 0.000000 12.221270 -47.573897 11.546107 26.604097 -36.085725 -12.512774 39.539918 -3.694140 -2.434989 0.000000 0.000000 0.000000 -19.200515 31.808731 5.660178 -20.246666 54.948009 -6.598153 -46.195356 1.437501 1.562768 0.000000 0.000000 0.000000 
